<svg t="1755332748552" fill="currentColor"  viewBox="0 0 1109 1024" version="1.1" xmlns="http://www.w3.org/2000/svg" p-id="37243" width="200" height="200"><path d="M1018.154667 82.56C1080.32 145.066667 1088 202.581333 1088 449.493333c0 246.698667-7.68 304.512-69.845333 366.933334-60.16 60.586667-115.968 69.802667-342.784 70.357333h-22.442667c-47.36 0-105.301333 18.346667-169.216 51.797333-149.973333 78.208-171.946667 86.784-214.442667 58.026667-32.213333-21.76-40.106667-40.96-35.84-117.674667-63.402667-8.874667-107.392-27.392-142.250666-62.464C31.018667 756.053333 21.888 699.989333 21.333333 472.149333v-22.613333c0-246.698667 7.68-304.512 69.845334-366.933333C151.338667 21.973333 207.146667 12.8 433.92 12.202667h218.965333c245.376 0 303.018667 7.808 365.226667 70.314666z m-344.746667 13.909333h-237.482667c-200.106667 0.469333-247.722667 7.936-285.013333 45.482667-37.418667 37.589333-44.928 85.76-45.354667 286.933333v41.258667c0.469333 201.386667 7.936 249.386667 45.312 287.018667 19.456 19.498667 45.824 31.104 89.002667 37.632l0.64-4.949334 2.090667-22.997333a42.112 42.112 0 0 1 32.213333-37.205333l6.570667-1.024h6.912a42.112 42.112 0 0 1 38.144 45.738666l-2.090667 23.04c-6.613333 72.618667-7.850667 108.458667-8.021333 122.282667v4.693333l0.085333 2.474667c-0.256-0.128 32.768-13.056 128.341333-62.933333 74.965333-39.125333 144.853333-61.354667 208.170667-61.354667 217.472 0 267.008-6.741333 305.493333-45.482667 38.613333-38.826667 45.354667-88.96 45.354667-307.541333 0-218.837333-6.656-268.8-45.312-307.626667-37.333333-37.461333-85.077333-44.970667-285.056-45.44zM554.666667 259.285333a42.112 42.112 0 0 1 42.112 42.069334l-0.085334 105.984 105.344 0.085333a42.112 42.112 0 0 1 41.557334 35.285333l0.554666 6.826667a42.112 42.112 0 0 1-42.112 42.069333h-105.344l0.085334 106.069334a42.069333 42.069333 0 0 1-35.328 41.514666l-6.784 0.64a42.112 42.112 0 0 1-42.112-42.112l-0.085334-106.154666-105.173333 0.042666a42.112 42.112 0 0 1-41.557333-35.285333l-0.554667-6.826667a42.112 42.112 0 0 1 42.112-42.069333h105.216l0.042667-106.197333a42.069333 42.069333 0 0 1 35.328-41.557334l6.784-0.426666z" p-id="37244"></path></svg>