<svg t="1755324148406" fill="currentColor" viewBox="0 0 1024 1024" version="1.1" xmlns="http://www.w3.org/2000/svg" p-id="26171" width="200" height="200"><path d="M768 0H256C115.2 0 0 115.2 0 256v512c0 140.8 115.2 256 256 256h512c140.8 0 256-115.2 256-256V256c0-140.8-115.2-256-256-256zM119.466667 904.533333c-38.4-38.4-55.466667-81.066667-55.466667-136.533333V256c0-51.2 17.066667-98.133333 55.466667-136.533333 38.4-38.4 85.333333-55.466667 136.533333-55.466667h21.333333v896H256c-51.2 0-98.133333-17.066667-136.533333-55.466667zM960 768c0 51.2-17.066667 98.133333-55.466667 136.533333-38.4 38.4-81.066667 55.466667-136.533333 55.466667H341.333333v-896h426.666667c51.2 0 98.133333 17.066667 136.533333 55.466667 38.4 38.4 55.466667 81.066667 55.466667 136.533333v512z" p-id="26172"></path><path d="M699.733333 618.666667l-106.666666-102.4 106.666666-110.933334c12.8-12.8 12.8-34.133333 0-46.933333-12.8-12.8-34.133333-12.8-46.933333 0l-128 132.266667c-12.8 12.8-12.8 34.133333 0 46.933333l128 123.733333c12.8 12.8 34.133333 12.8 46.933333 0 12.8-8.533333 12.8-29.866667 0-42.666666z" p-id="26173"></path></svg>